<!-- 图标 sprite。来源：lucide-static（ISC）+ 桌面端自绘 SVG。
     由 _gen_icon_sprite.py 生成，勿手改。 -->
<svg id="ic-sprite" aria-hidden="true" focusable="false" xmlns="http://www.w3.org/2000/svg" style="position:absolute;width:0;height:0;overflow:hidden">
  <symbol id="ic-archive" viewBox="0 0 24 24" fill="none" stroke="currentColor" stroke-width="2" stroke-linecap="round" stroke-linejoin="round"><rect width="20" height="5" x="2" y="3" rx="1" /> <path d="M4 8v11a2 2 0 0 0 2 2h12a2 2 0 0 0 2-2V8" /> <path d="M10 12h4" /></symbol>
  <symbol id="ic-arrow-up" viewBox="0 0 24 24" fill="none" stroke="currentColor" stroke-width="2" stroke-linecap="round" stroke-linejoin="round"><path d="m5 12 7-7 7 7" /> <path d="M12 19V5" /></symbol>
  <symbol id="ic-battery" viewBox="0 0 24 24" fill="none" stroke="currentColor" stroke-width="2" stroke-linecap="round" stroke-linejoin="round"><path d="M10 14v-4" /> <path d="M22 14v-4" /> <path d="M6 14v-4" /> <rect x="2" y="6" width="16" height="12" rx="2" /></symbol>
  <symbol id="ic-bell" viewBox="0 0 24 24" fill="none" stroke="currentColor" stroke-width="2" stroke-linecap="round" stroke-linejoin="round"><path d="M10.268 21a2 2 0 0 0 3.464 0" /> <path d="M3.262 15.326A1 1 0 0 0 4 17h16a1 1 0 0 0 .74-1.673C19.41 13.956 18 12.499 18 8A6 6 0 0 0 6 8c0 4.499-1.411 5.956-2.738 7.326" /></symbol>
  <symbol id="ic-book-text" viewBox="0 0 24 24" fill="none" stroke="currentColor" stroke-width="2" stroke-linecap="round" stroke-linejoin="round"><path d="M12 5v16" /> <path d="M16 13h2" /> <path d="M16 9h2" /> <path d="M20.001 19A2 2 0 0022 17V5a2 2 0 00-1.999-2L16 3.002A5 5 0 0012 5a5 5 0 00-4-2H4a2 2 0 00-2 2v12a2 2 0 001.999 2H8a5 5 0 014 2 5 5 0 014-2z" /> <path d="M6 13h2" /> <path d="M6 9h2" /></symbol>
  <symbol id="ic-brain" viewBox="0 0 24 24" fill="none" stroke="currentColor" stroke-width="2" stroke-linecap="round" stroke-linejoin="round"><path d="M12 18V5" /> <path d="M15 13a4.17 4.17 0 0 1-3-4 4.17 4.17 0 0 1-3 4" /> <path d="M17.598 6.5A3 3 0 1 0 12 5a3 3 0 1 0-5.598 1.5" /> <path d="M17.997 5.125a4 4 0 0 1 2.526 5.77" /> <path d="M18 18a4 4 0 0 0 2-7.464" /> <path d="M19.967 17.483A4 4 0 1 1 12 18a4 4 0 1 1-7.967-.517" /> <path d="M6 18a4 4 0 0 1-2-7.464" /> <path d="M6.003 5.125a4 4 0 0 0-2.526 5.77" /></symbol>
  <symbol id="ic-camera" viewBox="0 0 24 24" fill="none" stroke="currentColor" stroke-width="2" stroke-linecap="round" stroke-linejoin="round"><path d="M13.997 4a2 2 0 0 1 1.76 1.05l.486.9A2 2 0 0 0 18.003 7H20a2 2 0 0 1 2 2v9a2 2 0 0 1-2 2H4a2 2 0 0 1-2-2V9a2 2 0 0 1 2-2h1.997a2 2 0 0 0 1.759-1.048l.489-.904A2 2 0 0 1 10.004 4z" /> <circle cx="12" cy="13" r="3" /></symbol>
  <symbol id="ic-chat" viewBox="0 0 24 24" fill="none" stroke="currentColor" stroke-width="2" stroke-linecap="round" stroke-linejoin="round"><path d="M2.992 16.342a2 2 0 0 1 .094 1.167l-1.065 3.29a1 1 0 0 0 1.236 1.168l3.413-.998a2 2 0 0 1 1.099.092 10 10 0 1 0-4.777-4.719" /></symbol>
  <symbol id="ic-check" viewBox="0 0 24 24" fill="none" stroke="currentColor" stroke-width="2" stroke-linecap="round" stroke-linejoin="round"><path d="M20 6 9 17l-5-5" /></symbol>
  <symbol id="ic-chevron-down" viewBox="0 0 24 24" fill="none" stroke="currentColor" stroke-width="2" stroke-linecap="round" stroke-linejoin="round"><path d="m6 9 6 6 6-6" /></symbol>
  <symbol id="ic-chevron-left" viewBox="0 0 24 24" fill="none" stroke="currentColor" stroke-width="2" stroke-linecap="round" stroke-linejoin="round"><path d="m15 18-6-6 6-6" /></symbol>
  <symbol id="ic-chevron-right" viewBox="0 0 24 24" fill="none" stroke="currentColor" stroke-width="2" stroke-linecap="round" stroke-linejoin="round"><path d="m9 18 6-6-6-6" /></symbol>
  <symbol id="ic-clip" viewBox="0 0 24 24" fill="none" stroke="currentColor" stroke-width="2" stroke-linecap="round" stroke-linejoin="round"><path d="m16 6-8.414 8.586a2 2 0 0 0 2.829 2.829l8.414-8.586a4 4 0 1 0-5.657-5.657l-8.379 8.551a6 6 0 1 0 8.485 8.485l8.379-8.551" /></symbol>
  <symbol id="ic-clipboard" viewBox="0 0 24 24" fill="none" stroke="currentColor" stroke-width="2" stroke-linecap="round" stroke-linejoin="round"><rect width="8" height="4" x="8" y="2" rx="1" ry="1" /> <path d="M16 4h2a2 2 0 0 1 2 2v14a2 2 0 0 1-2 2H6a2 2 0 0 1-2-2V6a2 2 0 0 1 2-2h2" /></symbol>
  <symbol id="ic-clipboard-copy" viewBox="0 0 24 24" fill="none" stroke="currentColor" stroke-width="2" stroke-linecap="round" stroke-linejoin="round"><rect width="8" height="4" x="8" y="2" rx="1" ry="1" /> <path d="M8 4H6a2 2 0 0 0-2 2v14a2 2 0 0 0 2 2h12a2 2 0 0 0 2-2v-2" /> <path d="M16 4h2a2 2 0 0 1 2 2v4" /> <path d="M21 14H11" /> <path d="m15 10-4 4 4 4" /></symbol>
  <symbol id="ic-code" viewBox="0 0 24 24" fill="none" stroke="currentColor" stroke-width="2" stroke-linecap="round" stroke-linejoin="round"><path d="m16 18 6-6-6-6" /> <path d="m8 6-6 6 6 6" /></symbol>
  <symbol id="ic-cpu" viewBox="0 0 24 24" fill="none" stroke="currentColor" stroke-width="2" stroke-linecap="round" stroke-linejoin="round"><path d="M12 20v2" /> <path d="M12 2v2" /> <path d="M17 20v2" /> <path d="M17 2v2" /> <path d="M2 12h2" /> <path d="M2 17h2" /> <path d="M2 7h2" /> <path d="M20 12h2" /> <path d="M20 17h2" /> <path d="M20 7h2" /> <path d="M7 20v2" /> <path d="M7 2v2" /> <rect x="4" y="4" width="16" height="16" rx="2" /> <rect x="8" y="8" width="8" height="8" rx="1" /></symbol>
  <symbol id="ic-doc" viewBox="0 0 24 24" fill="none" stroke="currentColor" stroke-width="2" stroke-linecap="round" stroke-linejoin="round"><path d="M6 22a2 2 0 0 1-2-2V4a2 2 0 0 1 2-2h8a2.4 2.4 0 0 1 1.704.706l3.588 3.588A2.4 2.4 0 0 1 20 8v12a2 2 0 0 1-2 2z" /> <path d="M14 2v5a1 1 0 0 0 1 1h5" /> <path d="M10 9H8" /> <path d="M16 13H8" /> <path d="M16 17H8" /></symbol>
  <symbol id="ic-download" viewBox="0 0 24 24" fill="none" stroke="currentColor" stroke-width="2" stroke-linecap="round" stroke-linejoin="round"><path d="M12 15V3" /> <path d="M21 15v4a2 2 0 0 1-2 2H5a2 2 0 0 1-2-2v-4" /> <path d="m7 10 5 5 5-5" /></symbol>
  <symbol id="ic-file-pen" viewBox="0 0 24 24" fill="none" stroke="currentColor" stroke-width="2" stroke-linecap="round" stroke-linejoin="round"><path d="M12.659 22H18a2 2 0 0 0 2-2V8a2.4 2.4 0 0 0-.706-1.706l-3.588-3.588A2.4 2.4 0 0 0 14 2H6a2 2 0 0 0-2 2v9.34" /> <path d="M14 2v5a1 1 0 0 0 1 1h5" /> <path d="M10.378 12.622a1 1 0 0 1 3 3.003L8.36 20.637a2 2 0 0 1-.854.506l-2.867.837a.5.5 0 0 1-.62-.62l.836-2.869a2 2 0 0 1 .506-.853z" /></symbol>
  <symbol id="ic-flashlight" viewBox="0 0 24 24" fill="none" stroke="currentColor" stroke-width="2" stroke-linecap="round" stroke-linejoin="round"><path d="M12 13v1" /> <path d="M17 2a1 1 0 0 1 1 1v4a3 3 0 0 1-.6 1.8l-.6.8A4 4 0 0 0 16 12v8a2 2 0 0 1-2 2H10a2 2 0 0 1-2-2v-8a4 4 0 0 0-.8-2.4l-.6-.8A3 3 0 0 1 6 7V3a1 1 0 0 1 1-1z" /> <path d="M6 6h12" /></symbol>
  <symbol id="ic-folder" viewBox="0 0 24 24" fill="none" stroke="currentColor" stroke-width="2" stroke-linecap="round" stroke-linejoin="round"><path d="M20 20a2 2 0 0 0 2-2V8a2 2 0 0 0-2-2h-7.9a2 2 0 0 1-1.69-.9L9.6 3.9A2 2 0 0 0 7.93 3H4a2 2 0 0 0-2 2v13a2 2 0 0 0 2 2Z" /></symbol>
  <symbol id="ic-globe" viewBox="0 0 24 24" fill="none" stroke="currentColor" stroke-width="2" stroke-linecap="round" stroke-linejoin="round"><circle cx="12" cy="12" r="10" /> <path d="M12 2a14.5 14.5 0 0 0 0 20 14.5 14.5 0 0 0 0-20" /> <path d="M2 12h20" /></symbol>
  <symbol id="ic-hard-drive" viewBox="0 0 24 24" fill="none" stroke="currentColor" stroke-width="2" stroke-linecap="round" stroke-linejoin="round"><path d="M10 16h.01" /> <path d="M2.212 11.577a2 2 0 0 0-.212.896V18a2 2 0 0 0 2 2h16a2 2 0 0 0 2-2v-5.527a2 2 0 0 0-.212-.896L18.55 5.11A2 2 0 0 0 16.76 4H7.24a2 2 0 0 0-1.79 1.11z" /> <path d="M21.946 12.013H2.054" /> <path d="M6 16h.01" /></symbol>
  <symbol id="ic-help" viewBox="0 0 24 24" fill="none" stroke="currentColor" stroke-width="2" stroke-linecap="round" stroke-linejoin="round"><circle cx="12" cy="12" r="10" /> <path d="M9.09 9a3 3 0 0 1 5.83 1c0 2-3 3-3 3" /> <path d="M12 17h.01" /></symbol>
  <symbol id="ic-history" viewBox="0 0 24 24" fill="none" stroke="currentColor" stroke-width="2" stroke-linecap="round" stroke-linejoin="round"><path d="M3 12a9 9 0 1 0 9-9 9.75 9.75 0 0 0-6.74 2.74L3 8" /> <path d="M3 3v5h5" /> <path d="M12 7v5l4 2" /></symbol>
  <symbol id="ic-image" viewBox="0 0 24 24" fill="none" stroke="currentColor" stroke-width="2" stroke-linecap="round" stroke-linejoin="round"><rect width="18" height="18" x="3" y="3" rx="2" ry="2" /> <circle cx="9" cy="9" r="2" /> <path d="m21 15-3.086-3.086a2 2 0 0 0-2.828 0L6 21" /></symbol>
  <symbol id="ic-info" viewBox="0 0 24 24" fill="none" stroke="currentColor" stroke-width="2" stroke-linecap="round" stroke-linejoin="round"><circle cx="12" cy="12" r="10" /> <path d="M12 16v-4" /> <path d="M12 8h.01" /></symbol>
  <symbol id="ic-learn" viewBox="0 0 24 24" fill="none" stroke="currentColor" stroke-width="2" stroke-linecap="round" stroke-linejoin="round"><path d="M12 5v16" /> <path d="M20.001 19A2 2 0 0022 17V5a2 2 0 00-1.999-2L16 3.002A5 5 0 0012 5a5 5 0 00-4-2H4a2 2 0 00-2 2v12a2 2 0 001.999 2H8a5 5 0 014 2 5 5 0 014-2z" /></symbol>
  <symbol id="ic-list-todo" viewBox="0 0 24 24" fill="none" stroke="currentColor" stroke-width="2" stroke-linecap="round" stroke-linejoin="round"><path d="M13 5h8" /> <path d="M13 12h8" /> <path d="M13 19h8" /> <path d="m3 17 2 2 4-4" /> <rect x="3" y="4" width="6" height="6" rx="1" /></symbol>
  <symbol id="ic-loader" viewBox="0 0 24 24" fill="none" stroke="currentColor" stroke-width="2" stroke-linecap="round" stroke-linejoin="round"><path d="M21 12a9 9 0 1 1-6.219-8.56" /></symbol>
  <symbol id="ic-map-pin" viewBox="0 0 24 24" fill="none" stroke="currentColor" stroke-width="2" stroke-linecap="round" stroke-linejoin="round"><path d="M20 10c0 4.993-5.539 10.193-7.399 11.799a1 1 0 0 1-1.202 0C9.539 20.193 4 14.993 4 10a8 8 0 0 1 16 0" /> <circle cx="12" cy="10" r="3" /></symbol>
  <symbol id="ic-menu" viewBox="0 0 24 24" fill="none" stroke="currentColor" stroke-width="2" stroke-linecap="round" stroke-linejoin="round"><path d="M4 5h16" /> <path d="M4 12h16" /> <path d="M4 19h16" /></symbol>
  <symbol id="ic-mic" viewBox="0 0 24 24" fill="none" stroke="currentColor" stroke-width="2" stroke-linecap="round" stroke-linejoin="round"><path d="M12 19v3" /> <path d="M19 10v2a7 7 0 0 1-14 0v-2" /> <rect x="9" y="2" width="6" height="13" rx="3" /></symbol>
  <symbol id="ic-music" viewBox="0 0 24 24" fill="none" stroke="currentColor" stroke-width="2" stroke-linecap="round" stroke-linejoin="round"><path d="M9 18V5l12-2v13" /> <circle cx="6" cy="18" r="3" /> <circle cx="18" cy="16" r="3" /></symbol>
  <symbol id="ic-package" viewBox="0 0 24 24" fill="none" stroke="currentColor" stroke-width="2" stroke-linecap="round" stroke-linejoin="round"><path d="M11 21.73a2 2 0 0 0 2 0l7-4A2 2 0 0 0 21 16V8a2 2 0 0 0-1-1.73l-7-4a2 2 0 0 0-2 0l-7 4A2 2 0 0 0 3 8v8a2 2 0 0 0 1 1.73z" /> <path d="M12 22V12" /> <polyline points="3.29 7 12 12 20.71 7" /> <path d="m7.5 4.27 9 5.15" /></symbol>
  <symbol id="ic-plus" viewBox="0 0 24 24" fill="none" stroke="currentColor" stroke-width="2" stroke-linecap="round" stroke-linejoin="round"><path d="M5 12h14" /> <path d="M12 5v14" /></symbol>
  <symbol id="ic-puzzle" viewBox="0 0 24 24" fill="none" stroke="currentColor" stroke-width="2" stroke-linecap="round" stroke-linejoin="round"><path d="M15.39 4.39a1 1 0 0 0 1.68-.474 2.5 2.5 0 1 1 3.014 3.015 1 1 0 0 0-.474 1.68l1.683 1.682a2.414 2.414 0 0 1 0 3.414L19.61 15.39a1 1 0 0 1-1.68-.474 2.5 2.5 0 1 0-3.014 3.015 1 1 0 0 1 .474 1.68l-1.683 1.682a2.414 2.414 0 0 1-3.414 0L8.61 19.61a1 1 0 0 0-1.68.474 2.5 2.5 0 1 1-3.014-3.015 1 1 0 0 0 .474-1.68l-1.683-1.682a2.414 2.414 0 0 1 0-3.414L4.39 8.61a1 1 0 0 1 1.68.474 2.5 2.5 0 1 0 3.014-3.015 1 1 0 0 1-.474-1.68l1.683-1.682a2.414 2.414 0 0 1 3.414 0z" /></symbol>
  <symbol id="ic-refresh-cw" viewBox="0 0 24 24" fill="none" stroke="currentColor" stroke-width="2" stroke-linecap="round" stroke-linejoin="round"><path d="M3 12a9 9 0 0 1 9-9 9.75 9.75 0 0 1 6.74 2.74L21 8" /> <path d="M21 3v5h-5" /> <path d="M21 12a9 9 0 0 1-9 9 9.75 9.75 0 0 1-6.74-2.74L3 16" /> <path d="M8 16H3v5" /></symbol>
  <symbol id="ic-satellite" viewBox="0 0 24 24" fill="none" stroke="currentColor" stroke-width="2" stroke-linecap="round" stroke-linejoin="round"><path d="m13.5 6.5-3.148-3.148a1.205 1.205 0 0 0-1.704 0L6.352 5.648a1.205 1.205 0 0 0 0 1.704L9.5 10.5" /> <path d="M16.5 7.5 19 5" /> <path d="m17.5 10.5 3.148 3.148a1.205 1.205 0 0 1 0 1.704l-2.296 2.296a1.205 1.205 0 0 1-1.704 0L13.5 14.5" /> <path d="M9 21a6 6 0 0 0-6-6" /> <path d="M9.352 10.648a1.205 1.205 0 0 0 0 1.704l2.296 2.296a1.205 1.205 0 0 0 1.704 0l4.296-4.296a1.205 1.205 0 0 0 0-1.704l-2.296-2.296a1.205 1.205 0 0 0-1.704 0z" /></symbol>
  <symbol id="ic-scissors" viewBox="0 0 24 24" fill="none" stroke="currentColor" stroke-width="2" stroke-linecap="round" stroke-linejoin="round"><circle cx="6" cy="6" r="3" /> <path d="M8.12 8.12 12 12" /> <path d="M20 4 8.12 15.88" /> <circle cx="6" cy="18" r="3" /> <path d="M14.8 14.8 20 20" /></symbol>
  <symbol id="ic-search" viewBox="0 0 24 24" fill="none" stroke="currentColor" stroke-width="2" stroke-linecap="round" stroke-linejoin="round"><path d="m21 21-4.34-4.34" /> <circle cx="11" cy="11" r="8" /></symbol>
  <symbol id="ic-settings" viewBox="0 0 24 24" fill="none" stroke="currentColor" stroke-width="2" stroke-linecap="round" stroke-linejoin="round"><path d="M9.671 4.136a2.34 2.34 0 0 1 4.659 0 2.34 2.34 0 0 0 3.319 1.915 2.34 2.34 0 0 1 2.33 4.033 2.34 2.34 0 0 0 0 3.831 2.34 2.34 0 0 1-2.33 4.033 2.34 2.34 0 0 0-3.319 1.915 2.34 2.34 0 0 1-4.659 0 2.34 2.34 0 0 0-3.32-1.915 2.34 2.34 0 0 1-2.33-4.033 2.34 2.34 0 0 0 0-3.831A2.34 2.34 0 0 1 6.35 6.051a2.34 2.34 0 0 0 3.319-1.915" /> <circle cx="12" cy="12" r="3" /></symbol>
  <symbol id="ic-sparkles" viewBox="0 0 24 24" fill="none" stroke="currentColor" stroke-width="2" stroke-linecap="round" stroke-linejoin="round"><path d="M11.017 2.814a1 1 0 0 1 1.966 0l1.051 5.558a2 2 0 0 0 1.594 1.594l5.558 1.051a1 1 0 0 1 0 1.966l-5.558 1.051a2 2 0 0 0-1.594 1.594l-1.051 5.558a1 1 0 0 1-1.966 0l-1.051-5.558a2 2 0 0 0-1.594-1.594l-5.558-1.051a1 1 0 0 1 0-1.966l5.558-1.051a2 2 0 0 0 1.594-1.594z" /> <path d="M20 2v4" /> <path d="M22 4h-4" /> <circle cx="4" cy="20" r="2" /></symbol>
  <symbol id="ic-square" viewBox="0 0 24 24" fill="none" stroke="currentColor" stroke-width="2" stroke-linecap="round" stroke-linejoin="round"><rect width="18" height="18" x="3" y="3" rx="2" /></symbol>
  <symbol id="ic-sun" viewBox="0 0 24 24" fill="none" stroke="currentColor" stroke-width="2" stroke-linecap="round" stroke-linejoin="round"><circle cx="12" cy="12" r="4" /> <path d="M12 3v1" /> <path d="M12 20v1" /> <path d="M3 12h1" /> <path d="M20 12h1" /> <path d="m18.364 5.636-.707.707" /> <path d="m6.343 17.657-.707.707" /> <path d="m5.636 5.636.707.707" /> <path d="m17.657 17.657.707.707" /></symbol>
  <symbol id="ic-terminal" viewBox="0 0 24 24" fill="none" stroke="currentColor" stroke-width="2" stroke-linecap="round" stroke-linejoin="round"><path d="M12 19h8" /> <path d="m4 17 6-6-6-6" /></symbol>
  <symbol id="ic-todo-cancelled" viewBox="0 0 24 24" fill="none" stroke="currentColor" stroke-width="2" stroke-linecap="round" stroke-linejoin="round"><circle cx="12" cy="12" r="10" /> <path d="m15 9-6 6" /> <path d="m9 9 6 6" /></symbol>
  <symbol id="ic-todo-done" viewBox="0 0 24 24" fill="none" stroke="currentColor" stroke-width="2" stroke-linecap="round" stroke-linejoin="round"><circle cx="12" cy="12" r="10" /> <path d="m16 9-5.5 5.5L8 12" /></symbol>
  <symbol id="ic-todo-pending" viewBox="0 0 24 24" fill="none" stroke="currentColor" stroke-width="2" stroke-linecap="round" stroke-linejoin="round"><circle cx="12" cy="12" r="10" /></symbol>
  <symbol id="ic-todo-running" viewBox="0 0 24 24" fill="none" stroke="currentColor" stroke-width="2" stroke-linecap="round" stroke-linejoin="round"><circle cx="12" cy="12" r="1" /> <circle cx="12" cy="12" r="10" /></symbol>
  <symbol id="ic-trash" viewBox="0 0 24 24" fill="none" stroke="currentColor" stroke-width="2" stroke-linecap="round" stroke-linejoin="round"><path d="M10 11v6" /> <path d="M14 11v6" /> <path d="M19 6v14a2 2 0 0 1-2 2H7a2 2 0 0 1-2-2V6" /> <path d="M3 6h18" /> <path d="M8 6V4a2 2 0 0 1 2-2h4a2 2 0 0 1 2 2v2" /></symbol>
  <symbol id="ic-user" viewBox="0 0 24 24" fill="none" stroke="currentColor" stroke-width="2" stroke-linecap="round" stroke-linejoin="round"><path d="M19 21v-2a4 4 0 0 0-4-4H9a4 4 0 0 0-4 4v2" /> <circle cx="12" cy="7" r="4" /></symbol>
  <symbol id="ic-vibrate" viewBox="0 0 24 24" fill="none" stroke="currentColor" stroke-width="2" stroke-linecap="round" stroke-linejoin="round"><path d="m2 8 2 2-2 2 2 2-2 2" /> <path d="m22 8-2 2 2 2-2 2 2 2" /> <rect width="8" height="14" x="8" y="5" rx="1" /></symbol>
  <symbol id="ic-volume" viewBox="0 0 24 24" fill="none" stroke="currentColor" stroke-width="2" stroke-linecap="round" stroke-linejoin="round"><path d="M11 4.702a.705.705 0 0 0-1.203-.498L6.413 7.587A1.4 1.4 0 0 1 5.416 8H3a1 1 0 0 0-1 1v6a1 1 0 0 0 1 1h2.416a1.4 1.4 0 0 1 .997.413l3.383 3.384A.705.705 0 0 0 11 19.298z" /> <path d="M16 9a5 5 0 0 1 0 6" /> <path d="M19.364 18.364a9 9 0 0 0 0-12.728" /></symbol>
  <symbol id="ic-warn" viewBox="0 0 24 24" fill="none" stroke="currentColor" stroke-width="2" stroke-linecap="round" stroke-linejoin="round"><path d="m21.73 18-8-14a2 2 0 0 0-3.48 0l-8 14A2 2 0 0 0 4 21h16a2 2 0 0 0 1.73-3" /> <path d="M12 9v4" /> <path d="M12 17h.01" /></symbol>
  <symbol id="ic-wifi" viewBox="0 0 24 24" fill="none" stroke="currentColor" stroke-width="2" stroke-linecap="round" stroke-linejoin="round"><path d="M12 20h.01" /> <path d="M2 8.82a15 15 0 0 1 20 0" /> <path d="M5 12.859a10 10 0 0 1 14 0" /> <path d="M8.5 16.429a5 5 0 0 1 7 0" /></symbol>
  <symbol id="ic-work" viewBox="0 0 24 24" fill="none" stroke="currentColor" stroke-width="2" stroke-linecap="round" stroke-linejoin="round"><path d="M14.7 6.3a1 1 0 0 0 0 1.4l1.6 1.6a1 1 0 0 0 1.4 0l3.106-3.105c.32-.322.863-.22.983.218a6 6 0 0 1-8.259 7.057l-7.91 7.91a1 1 0 0 1-2.999-3l7.91-7.91a6 6 0 0 1 7.057-8.259c.438.12.54.662.219.984z" /></symbol>
  <symbol id="ic-x" viewBox="0 0 24 24" fill="none" stroke="currentColor" stroke-width="2" stroke-linecap="round" stroke-linejoin="round"><path d="M18 6 6 18" /> <path d="m6 6 12 12" /></symbol>
  <symbol id="ic-attach" viewBox="0 0 48 48" fill="none" stroke="currentColor" stroke-width="4" stroke-linecap="round" stroke-linejoin="round"><path d="M16 6H8C6.89543 6 6 6.89543 6 8V16" stroke="currentColor" stroke-width="4" stroke-linecap="round" stroke-linejoin="round"/><path d="M16 42H8C6.89543 42 6 41.1046 6 40V32" stroke="currentColor" stroke-width="4" stroke-linecap="round" stroke-linejoin="round"/><path d="M32 42H40C41.1046 42 42 41.1046 42 40V32" stroke="currentColor" stroke-width="4" stroke-linecap="round" stroke-linejoin="round"/><path d="M32 6H40C41.1046 6 42 6.89543 42 8V16" stroke="currentColor" stroke-width="4" stroke-linecap="round" stroke-linejoin="round"/><path d="M32 24L16 24" stroke="currentColor" stroke-width="4" stroke-linecap="round" stroke-linejoin="round"/><path d="M24 32L24 16" stroke="currentColor" stroke-width="4" stroke-linecap="round" stroke-linejoin="round"/></symbol>
  <symbol id="ic-clear" viewBox="0 0 48 48" fill="none" stroke="currentColor" stroke-width="4" stroke-linecap="round" stroke-linejoin="round"><path d="M18.4237 10.5379C18.794 10.1922 19.2817 10 19.7883 10H42C43.1046 10 44 10.8954 44 12V36C44 37.1046 43.1046 38 42 38H19.7883C19.2817 38 18.794 37.8078 18.4237 37.4621L4 24L18.4237 10.5379Z" fill="none" stroke="currentColor" stroke-width="4" stroke-linecap="round" stroke-linejoin="round"/><path d="M36 19L26 29" stroke="currentColor" stroke-width="4" stroke-linecap="round" stroke-linejoin="round"/><path d="M26 19L36 29" stroke="currentColor" stroke-width="4" stroke-linecap="round" stroke-linejoin="round"/></symbol>
  <symbol id="ic-mcp" viewBox="0 0 48 48" fill="none" stroke="currentColor" stroke-width="4" stroke-linecap="round" stroke-linejoin="round"><title>ModelContextProtocol</title><path d="M15.688 2.343a2.588 2.588 0 00-3.61 0l-9.626 9.44a.863.863 0 01-1.203 0 .823.823 0 010-1.18l9.626-9.44a4.313 4.313 0 016.016 0 4.116 4.116 0 011.204 3.54 4.3 4.3 0 013.609 1.18l.05.05a4.115 4.115 0 010 5.9l-8.706 8.537a.274.274 0 000 .393l1.788 1.754a.823.823 0 010 1.18.863.863 0 01-1.203 0l-1.788-1.753a1.92 1.92 0 010-2.754l8.706-8.538a2.47 2.47 0 000-3.54l-.05-.049a2.588 2.588 0 00-3.607-.003l-7.172 7.034-.002.002-.098.097a.863.863 0 01-1.204 0 .823.823 0 010-1.18l7.273-7.133a2.47 2.47 0 00-.003-3.537z"/><path d="M14.485 4.703a.823.823 0 000-1.18.863.863 0 00-1.204 0l-7.119 6.982a4.115 4.115 0 000 5.9 4.314 4.314 0 006.016 0l7.12-6.982a.823.823 0 000-1.18.863.863 0 00-1.204 0l-7.119 6.982a2.588 2.588 0 01-3.61 0 2.47 2.47 0 010-3.54l7.12-6.982z"/></symbol>
</svg>
